<svg width="40" height="48" viewBox="0 0 40 48" fill="none" xmlns="http://www.w3.org/2000/svg">
<path fill-rule="evenodd" clip-rule="evenodd" d="M0 19.63C0 8.79 8.956 0 20 0C31.044 0 40 8.79 40 19.63C40 30.5197 31.4402 38.0011 20.3678 47.6785L20 48L19.6322 47.6785C8.55985 38.0011 0 30.5197 0 19.63ZM4 20C4 28.836 11.162 36 20 36C28.838 36 36 28.836 36 20C36 11.164 28.838 4 20 4C11.162 4 4 11.164 4 20ZM28 28H22V24H18V28H12V20H10L20 10L30 20H28V28ZM24 12.018L26 14V10H24V12.018Z" fill="#333333"/>
</svg>
